<svg width="16" height="16" viewBox="0 0 16 16" fill="none" xmlns="http://www.w3.org/2000/svg">
<path fill-rule="evenodd" clip-rule="evenodd" d="M4.75158 0.679538C1.94812 1.92393 -0.00456966 4.7343 0.000559397 8.00112C0.00749807 12.4205 3.59484 16.0018 8.01311 16.0001C12.4314 15.9983 16.0075 12.4143 16.0005 7.99486C15.9958 4.97485 14.3191 2.34625 11.8479 0.98491C12.0419 1.23897 12.195 1.49076 12.305 1.71461C12.0533 1.31189 11.7169 0.98851 11.3463 0.731183C10.813 0.484606 10.248 0.294979 9.65925 0.170105C10.1395 0.728669 9.83538 1.852 9.53634 2.50139C9.62144 1.75881 9.56309 0.505703 8.825 0.478739C8.80168 0.48081 8.77751 0.481167 8.7526 0.479938C8.62306 0.488667 8.47439 0.532571 8.30416 0.619551C7.07387 1.24817 7.07525 3.0787 7.22973 3.91539C5.87475 2.41023 6.6635 1.0916 7.22724 0.620429C6.36543 0.244563 4.71486 1.19779 3.99731 1.72138C4.08824 1.30252 4.37938 0.956803 4.75158 0.679538Z" fill="#9C0000"/>
</svg>
