<svg width="88" height="28" viewBox="0 0 88 28" fill="none" xmlns="http://www.w3.org/2000/svg">
<mask id="path-1-outside-1" maskUnits="userSpaceOnUse" x="-0.0109863" y="4.66983" width="88" height="24" fill="black">
<rect fill="white" x="-0.0109863" y="4.66983" width="88" height="24"/>
<path d="M6.33848 23.1574C6.06126 23.1574 5.81775 23.1461 5.60795 23.1236C5.39816 23.1087 5.16214 23.0674 4.8999 23C4.64515 22.9326 4.42037 22.8427 4.22556 22.7303C4.03075 22.6104 3.82845 22.4493 3.61866 22.247C3.40887 22.0372 3.2253 21.7899 3.06795 21.5052C2.9181 21.2205 2.77199 20.8721 2.62963 20.46C2.48727 20.0404 2.37114 19.5684 2.28123 19.0439C2.19131 18.5194 2.12013 17.9088 2.06769 17.212C2.01524 16.5151 1.98901 15.7471 1.98901 14.908C1.98901 13.874 2.03022 12.9449 2.11264 12.1207C2.20255 11.289 2.31869 10.5885 2.46105 10.019C2.6109 9.44959 2.79822 8.95883 3.023 8.54673C3.25527 8.12715 3.48754 7.80122 3.71981 7.56895C3.95957 7.32918 4.24055 7.14187 4.56273 7.007C4.88491 6.86464 5.18462 6.77473 5.46185 6.73726C5.73907 6.69231 6.05751 6.66983 6.41716 6.66983C7.09149 6.66983 7.64595 6.76723 8.08052 6.96204C8.08801 6.96954 8.103 6.98077 8.12547 6.99576C8.14795 7.01074 8.16668 7.03322 8.18167 7.06319C8.19665 7.08567 8.20415 7.11939 8.20415 7.16434V8.25452C8.20415 8.34443 8.17792 8.38939 8.12547 8.38939C8.11798 8.38939 8.08801 8.3819 8.03556 8.36691C7.98311 8.35192 7.91193 8.33319 7.82202 8.31072C7.7396 8.28824 7.6422 8.26576 7.52981 8.24328C7.41742 8.21331 7.2863 8.19083 7.13645 8.17585C6.99409 8.16086 6.85547 8.15337 6.72061 8.15337C6.36845 8.15337 6.06126 8.19458 5.79901 8.277C5.54426 8.35192 5.28202 8.528 5.01229 8.80523C4.75005 9.07496 4.53276 9.44959 4.36043 9.92912C4.19559 10.4087 4.06072 11.068 3.95583 11.9072C3.85093 12.7389 3.79848 13.7391 3.79848 14.908C3.79848 16.0918 3.84344 17.1033 3.93335 17.9425C4.02326 18.7742 4.1394 19.4335 4.28176 19.9205C4.43161 20.4001 4.63016 20.7747 4.87742 21.0444C5.13217 21.3142 5.38317 21.4902 5.63043 21.5727C5.87769 21.6476 6.18114 21.6851 6.54078 21.6851C7.08775 21.6851 7.56353 21.6139 7.96813 21.4715C7.97562 21.4715 7.99061 21.5015 8.01308 21.5614C8.04305 21.6139 8.05804 21.6476 8.05804 21.6626V22.719C8.05804 22.734 8.04305 22.7715 8.01308 22.8314C7.99061 22.8839 7.97562 22.9138 7.96813 22.9213C7.54854 23.0787 7.00533 23.1574 6.33848 23.1574Z"/>
<path d="M13.9248 23.0337C13.67 23.0937 13.3741 23.1236 13.0369 23.1236C12.6997 23.1236 12.4 23.0937 12.1378 23.0337C11.8755 22.9738 11.5871 22.8277 11.2724 22.5954C10.9577 22.3631 10.6992 22.0484 10.4969 21.6513C10.2946 21.2542 10.1223 20.6885 9.9799 19.9543C9.84503 19.2125 9.7776 18.3358 9.7776 17.3243C9.7776 16.5901 9.81131 15.9307 9.87875 15.3463C9.95367 14.7544 10.0473 14.2599 10.1597 13.8628C10.2796 13.4656 10.4295 13.1247 10.6093 12.84C10.7891 12.5478 10.9652 12.323 11.1375 12.1657C11.3173 12.0008 11.5234 11.8735 11.7557 11.7835C11.9954 11.6861 12.209 11.6262 12.3963 11.6037C12.5836 11.5738 12.7971 11.5588 13.0369 11.5588C13.2692 11.5588 13.479 11.5738 13.6663 11.6037C13.8611 11.6262 14.0746 11.6861 14.3069 11.7835C14.5392 11.8735 14.7415 12.0008 14.9138 12.1657C15.0861 12.323 15.2622 12.5478 15.442 12.84C15.6218 13.1247 15.768 13.4656 15.8803 13.8628C15.9927 14.2599 16.0826 14.7544 16.1501 15.3463C16.225 15.9307 16.2625 16.5901 16.2625 17.3243C16.2625 18.3358 16.1913 19.2125 16.0489 19.9543C15.9141 20.6885 15.7455 21.2542 15.5432 21.6513C15.3409 22.0484 15.0861 22.3631 14.7789 22.5954C14.4717 22.8277 14.187 22.9738 13.9248 23.0337ZM13.0257 21.8536C13.2804 21.8536 13.4939 21.8012 13.6663 21.6963C13.8461 21.5839 14.0147 21.3741 14.172 21.0669C14.3294 20.7597 14.4455 20.2952 14.5204 19.6733C14.6028 19.0514 14.6441 18.2684 14.6441 17.3243C14.6441 16.3728 14.6028 15.5861 14.5204 14.9642C14.4455 14.3423 14.3256 13.8852 14.1608 13.593C14.0034 13.2933 13.8386 13.091 13.6663 12.9861C13.4939 12.8812 13.2804 12.8288 13.0257 12.8288C12.7709 12.8288 12.5536 12.8812 12.3738 12.9861C12.2015 13.091 12.0366 13.2933 11.8793 13.593C11.7219 13.8927 11.6021 14.3535 11.5196 14.9754C11.4447 15.5898 11.4072 16.3728 11.4072 17.3243C11.4072 18.2684 11.4447 19.0514 11.5196 19.6733C11.5946 20.2952 11.7107 20.7597 11.868 21.0669C12.0254 21.3741 12.1902 21.5839 12.3626 21.6963C12.5424 21.8012 12.7634 21.8536 13.0257 21.8536Z"/>
<path d="M22.2416 23.0337C21.9868 23.0937 21.6909 23.1236 21.3537 23.1236C21.0165 23.1236 20.7168 23.0937 20.4546 23.0337C20.1923 22.9738 19.9039 22.8277 19.5892 22.5954C19.2745 22.3631 19.016 22.0484 18.8137 21.6513C18.6114 21.2542 18.4391 20.6885 18.2967 19.9543C18.1618 19.2125 18.0944 18.3358 18.0944 17.3243C18.0944 16.5901 18.1281 15.9307 18.1956 15.3463C18.2705 14.7544 18.3641 14.2599 18.4765 13.8628C18.5964 13.4656 18.7463 13.1247 18.9261 12.84C19.1059 12.5478 19.282 12.323 19.4543 12.1657C19.6341 12.0008 19.8402 11.8735 20.0725 11.7835C20.3122 11.6861 20.5258 11.6262 20.7131 11.6037C20.9004 11.5738 21.1139 11.5588 21.3537 11.5588C21.586 11.5588 21.7958 11.5738 21.9831 11.6037C22.1779 11.6262 22.3914 11.6861 22.6237 11.7835C22.856 11.8735 23.0583 12.0008 23.2306 12.1657C23.4029 12.323 23.579 12.5478 23.7588 12.84C23.9387 13.1247 24.0848 13.4656 24.1972 13.8628C24.3095 14.2599 24.3995 14.7544 24.4669 15.3463C24.5418 15.9307 24.5793 16.5901 24.5793 17.3243C24.5793 18.3358 24.5081 19.2125 24.3657 19.9543C24.2309 20.6885 24.0623 21.2542 23.86 21.6513C23.6577 22.0484 23.4029 22.3631 23.0957 22.5954C22.7885 22.8277 22.5038 22.9738 22.2416 23.0337ZM21.3425 21.8536C21.5972 21.8536 21.8108 21.8012 21.9831 21.6963C22.1629 21.5839 22.3315 21.3741 22.4888 21.0669C22.6462 20.7597 22.7623 20.2952 22.8372 19.6733C22.9197 19.0514 22.9609 18.2684 22.9609 17.3243C22.9609 16.3728 22.9197 15.5861 22.8372 14.9642C22.7623 14.3423 22.6424 13.8852 22.4776 13.593C22.3203 13.2933 22.1554 13.091 21.9831 12.9861C21.8108 12.8812 21.5972 12.8288 21.3425 12.8288C21.0877 12.8288 20.8704 12.8812 20.6906 12.9861C20.5183 13.091 20.3534 13.2933 20.1961 13.593C20.0387 13.8927 19.9189 14.3535 19.8364 14.9754C19.7615 15.5898 19.7241 16.3728 19.7241 17.3243C19.7241 18.2684 19.7615 19.0514 19.8364 19.6733C19.9114 20.2952 20.0275 20.7597 20.1849 21.0669C20.3422 21.3741 20.507 21.5839 20.6794 21.6963C20.8592 21.8012 21.0802 21.8536 21.3425 21.8536Z"/>
<path d="M26.9395 23C26.7596 23 26.6697 22.764 26.6697 22.292V7.54647C26.6697 7.07443 26.7596 6.83841 26.9395 6.83841H27.9285C28.1083 6.83841 28.1982 7.07443 28.1982 7.54647V17.1333C28.1982 17.2382 28.2169 17.2906 28.2544 17.2906C28.2694 17.2831 28.2806 17.2719 28.2881 17.2569C28.5129 16.7324 28.7714 16.2005 29.0636 15.661C29.3558 15.1215 29.693 14.5221 30.0751 13.8628C30.4647 13.1959 30.7532 12.6902 30.9405 12.3455C31.1803 11.9109 31.3676 11.6936 31.5025 11.6936H32.5589C32.6339 11.6936 32.6713 11.7723 32.6713 11.9297C32.6713 12.0495 32.6301 12.1844 32.5477 12.3343L30.3224 16.4365C30.2924 16.5114 30.2774 16.5713 30.2774 16.6163C30.2774 16.6388 30.2924 16.695 30.3224 16.7849L32.7275 22.3144C32.7874 22.4568 32.8174 22.5842 32.8174 22.6966C32.8174 22.8989 32.7762 23 32.6938 23H31.5699C31.45 23 31.3039 22.7977 31.1316 22.3931L29.0973 17.5491C29.0674 17.4742 29.0374 17.4367 29.0074 17.4367C28.9849 17.4367 28.9625 17.463 28.94 17.5154C28.8875 17.5828 28.8051 17.7439 28.6927 17.9987C28.5878 18.2459 28.4904 18.4782 28.4005 18.6955L28.2657 19.0214C28.2207 19.1338 28.1982 19.2837 28.1982 19.471V22.292C28.1982 22.764 28.1083 23 27.9285 23H26.9395Z"/>
<path d="M36.324 20.5499C36.6387 21.4191 37.0358 21.8536 37.5153 21.8536C37.9948 21.8536 38.3695 21.4828 38.6392 20.741C38.9164 19.9992 39.055 18.8453 39.055 17.2794C39.055 15.8033 38.9164 14.6944 38.6392 13.9527C38.3695 13.2034 38.0023 12.8288 37.5378 12.8288C37.0657 12.8288 36.6649 13.2409 36.3352 14.0651C36.013 14.8892 35.8519 15.9607 35.8519 17.2794C35.8519 18.5831 36.0093 19.6733 36.324 20.5499ZM37.8187 23.1236C36.6574 23.1236 35.8594 22.3332 35.4249 20.7522C35.4099 20.7148 35.3949 20.696 35.3799 20.696C35.3499 20.696 35.3087 20.8908 35.2563 21.2804C35.2113 21.6626 35.1476 22.0447 35.0652 22.4268C34.9828 22.8089 34.8854 23 34.773 23H34.5482C34.3984 23 34.3234 22.779 34.3234 22.3369V7.63638C34.3234 7.1044 34.4171 6.83841 34.6044 6.83841H35.5822C35.6646 6.83841 35.7283 6.91334 35.7733 7.06319C35.8257 7.20555 35.8519 7.39661 35.8519 7.63638V13.2558C35.8519 13.3533 35.8669 13.402 35.8969 13.402L35.9531 13.3458C36.1704 12.7538 36.4551 12.308 36.8072 12.0083C37.1669 11.7086 37.5528 11.5588 37.9649 11.5588C38.3245 11.5588 38.6542 11.6562 38.9539 11.851C39.2536 12.0383 39.5308 12.3455 39.7856 12.7726C40.0478 13.1922 40.2539 13.7953 40.4037 14.582C40.5536 15.3613 40.6285 16.2904 40.6285 17.3693C40.6285 18.201 40.5723 18.9502 40.4599 19.6171C40.355 20.2764 40.2089 20.8234 40.0216 21.258C39.8418 21.6851 39.6282 22.0447 39.381 22.3369C39.1337 22.6216 38.879 22.8239 38.6167 22.9438C38.362 23.0637 38.096 23.1236 37.8187 23.1236Z"/>
<path d="M46.5626 23.0337C46.3079 23.0937 46.0119 23.1236 45.6748 23.1236C45.3376 23.1236 45.0379 23.0937 44.7757 23.0337C44.5134 22.9738 44.2249 22.8277 43.9103 22.5954C43.5956 22.3631 43.3371 22.0484 43.1348 21.6513C42.9325 21.2542 42.7601 20.6885 42.6178 19.9543C42.4829 19.2125 42.4155 18.3358 42.4155 17.3243C42.4155 16.5901 42.4492 15.9307 42.5166 15.3463C42.5916 14.7544 42.6852 14.2599 42.7976 13.8628C42.9175 13.4656 43.0673 13.1247 43.2472 12.84C43.427 12.5478 43.6031 12.323 43.7754 12.1657C43.9552 12.0008 44.1613 11.8735 44.3935 11.7835C44.6333 11.6861 44.8468 11.6262 45.0341 11.6037C45.2215 11.5738 45.435 11.5588 45.6748 11.5588C45.907 11.5588 46.1168 11.5738 46.3041 11.6037C46.499 11.6262 46.7125 11.6861 46.9448 11.7835C47.177 11.8735 47.3793 12.0008 47.5517 12.1657C47.724 12.323 47.9001 12.5478 48.0799 12.84C48.2597 13.1247 48.4058 13.4656 48.5182 13.8628C48.6306 14.2599 48.7205 14.7544 48.788 15.3463C48.8629 15.9307 48.9003 16.5901 48.9003 17.3243C48.9003 18.3358 48.8292 19.2125 48.6868 19.9543C48.5519 20.6885 48.3834 21.2542 48.181 21.6513C47.9787 22.0484 47.724 22.3631 47.4168 22.5954C47.1096 22.8277 46.8249 22.9738 46.5626 23.0337ZM45.6635 21.8536C45.9183 21.8536 46.1318 21.8012 46.3041 21.6963C46.484 21.5839 46.6526 21.3741 46.8099 21.0669C46.9672 20.7597 47.0834 20.2952 47.1583 19.6733C47.2407 19.0514 47.2819 18.2684 47.2819 17.3243C47.2819 16.3728 47.2407 15.5861 47.1583 14.9642C47.0834 14.3423 46.9635 13.8852 46.7987 13.593C46.6413 13.2933 46.4765 13.091 46.3041 12.9861C46.1318 12.8812 45.9183 12.8288 45.6635 12.8288C45.4088 12.8288 45.1915 12.8812 45.0117 12.9861C44.8393 13.091 44.6745 13.2933 44.5172 13.593C44.3598 13.8927 44.2399 14.3535 44.1575 14.9754C44.0826 15.5898 44.0451 16.3728 44.0451 17.3243C44.0451 18.2684 44.0826 19.0514 44.1575 19.6733C44.2324 20.2952 44.3486 20.7597 44.5059 21.0669C44.6633 21.3741 44.8281 21.5839 45.0004 21.6963C45.1803 21.8012 45.4013 21.8536 45.6635 21.8536Z"/>
<path d="M54.8795 23.0337C54.6247 23.0937 54.3287 23.1236 53.9916 23.1236C53.6544 23.1236 53.3547 23.0937 53.0925 23.0337C52.8302 22.9738 52.5418 22.8277 52.2271 22.5954C51.9124 22.3631 51.6539 22.0484 51.4516 21.6513C51.2493 21.2542 51.0769 20.6885 50.9346 19.9543C50.7997 19.2125 50.7323 18.3358 50.7323 17.3243C50.7323 16.5901 50.766 15.9307 50.8334 15.3463C50.9084 14.7544 51.002 14.2599 51.1144 13.8628C51.2343 13.4656 51.3841 13.1247 51.564 12.84C51.7438 12.5478 51.9199 12.323 52.0922 12.1657C52.272 12.0008 52.4781 11.8735 52.7103 11.7835C52.9501 11.6861 53.1636 11.6262 53.351 11.6037C53.5383 11.5738 53.7518 11.5588 53.9916 11.5588C54.2239 11.5588 54.4336 11.5738 54.621 11.6037C54.8158 11.6262 55.0293 11.6861 55.2616 11.7835C55.4939 11.8735 55.6962 12.0008 55.8685 12.1657C56.0408 12.323 56.2169 12.5478 56.3967 12.84C56.5765 13.1247 56.7226 13.4656 56.835 13.8628C56.9474 14.2599 57.0373 14.7544 57.1048 15.3463C57.1797 15.9307 57.2172 16.5901 57.2172 17.3243C57.2172 18.3358 57.146 19.2125 57.0036 19.9543C56.8687 20.6885 56.7002 21.2542 56.4979 21.6513C56.2956 22.0484 56.0408 22.3631 55.7336 22.5954C55.4264 22.8277 55.1417 22.9738 54.8795 23.0337ZM53.9803 21.8536C54.2351 21.8536 54.4486 21.8012 54.621 21.6963C54.8008 21.5839 54.9694 21.3741 55.1267 21.0669C55.2841 20.7597 55.4002 20.2952 55.4751 19.6733C55.5575 19.0514 55.5988 18.2684 55.5988 17.3243C55.5988 16.3728 55.5575 15.5861 55.4751 14.9642C55.4002 14.3423 55.2803 13.8852 55.1155 13.593C54.9581 13.2933 54.7933 13.091 54.621 12.9861C54.4486 12.8812 54.2351 12.8288 53.9803 12.8288C53.7256 12.8288 53.5083 12.8812 53.3285 12.9861C53.1562 13.091 52.9913 13.2933 52.834 13.593C52.6766 13.8927 52.5567 14.3535 52.4743 14.9754C52.3994 15.5898 52.3619 16.3728 52.3619 17.3243C52.3619 18.2684 52.3994 19.0514 52.4743 19.6733C52.5493 20.2952 52.6654 20.7597 52.8227 21.0669C52.9801 21.3741 53.1449 21.5839 53.3172 21.6963C53.4971 21.8012 53.7181 21.8536 53.9803 21.8536Z"/>
<path d="M59.5773 23C59.3975 23 59.3076 22.764 59.3076 22.292V7.54647C59.3076 7.07443 59.3975 6.83841 59.5773 6.83841H60.5664C60.7462 6.83841 60.8361 7.07443 60.8361 7.54647V17.1333C60.8361 17.2382 60.8548 17.2906 60.8923 17.2906C60.9073 17.2831 60.9185 17.2719 60.926 17.2569C61.1508 16.7324 61.4093 16.2005 61.7015 15.661C61.9937 15.1215 62.3309 14.5221 62.713 13.8628C63.1026 13.1959 63.3911 12.6902 63.5784 12.3455C63.8182 11.9109 64.0055 11.6936 64.1403 11.6936H65.1968C65.2717 11.6936 65.3092 11.7723 65.3092 11.9297C65.3092 12.0495 65.268 12.1844 65.1856 12.3343L62.9603 16.4365C62.9303 16.5114 62.9153 16.5713 62.9153 16.6163C62.9153 16.6388 62.9303 16.695 62.9603 16.7849L65.3654 22.3144C65.4253 22.4568 65.4553 22.5842 65.4553 22.6966C65.4553 22.8989 65.4141 23 65.3317 23H64.2078C64.0879 23 63.9418 22.7977 63.7695 22.3931L61.7352 17.5491C61.7052 17.4742 61.6753 17.4367 61.6453 17.4367C61.6228 17.4367 61.6003 17.463 61.5779 17.5154C61.5254 17.5828 61.443 17.7439 61.3306 17.9987C61.2257 18.2459 61.1283 18.4782 61.0384 18.6955L60.9035 19.0214C60.8586 19.1338 60.8361 19.2837 60.8361 19.471V22.292C60.8361 22.764 60.7462 23 60.5664 23H59.5773Z"/>
<path d="M68.2875 16.6837H71.2771C71.2921 16.6837 71.2995 16.6163 71.2995 16.4814C71.2546 15.2152 71.116 14.2898 70.8837 13.7054C70.6514 13.1135 70.2918 12.8175 69.8048 12.8175C68.8982 12.8175 68.3812 13.904 68.2538 16.0768C68.2538 16.4814 68.265 16.6837 68.2875 16.6837ZM72.5471 20.2352C72.5471 21.0669 72.326 21.7562 71.884 22.3032C71.4494 22.8502 70.8013 23.1236 69.9396 23.1236C67.7443 23.1236 66.6466 21.1943 66.6466 17.3356C66.6466 16.384 66.7103 15.5523 66.8377 14.8405C66.9726 14.1212 67.1411 13.5593 67.3434 13.1547C67.5457 12.7426 67.793 12.4129 68.0852 12.1657C68.3774 11.9109 68.6584 11.7461 68.9281 11.6712C69.2054 11.5887 69.5051 11.5475 69.8272 11.5475C71.7004 11.5475 72.637 13.3233 72.637 16.8748C72.637 17.4143 72.5246 17.684 72.2998 17.684H68.3212C68.2688 17.684 68.2426 17.7627 68.2426 17.92C68.2426 18.6618 68.2988 19.3174 68.4111 19.8868C68.5235 20.4563 68.7146 20.9283 68.9843 21.3029C69.2615 21.6701 69.6025 21.8536 70.0071 21.8536C70.2843 21.8536 70.5166 21.7899 70.7039 21.6626C70.8987 21.5277 71.041 21.3366 71.131 21.0894C71.2284 20.8421 71.2921 20.6323 71.322 20.46C71.3595 20.2802 71.3932 20.0517 71.4232 19.7744C71.4382 19.6246 71.4869 19.5497 71.5693 19.5497H72.3335C72.4759 19.5497 72.5471 19.7033 72.5471 20.0105V20.2352Z"/>
<path d="M75.0646 23C74.8773 23 74.7836 22.7602 74.7836 22.2807V12.559C74.7836 11.9821 74.8585 11.6936 75.0084 11.6936H75.3231C75.4055 11.6936 75.4692 11.7461 75.5142 11.851C75.5591 11.9559 75.6041 12.1432 75.649 12.4129L75.8513 13.9639C75.8813 14.0913 75.9075 14.155 75.93 14.155C75.96 14.155 75.9824 14.0913 75.9974 13.9639C76.1997 13.2221 76.4545 12.6452 76.7617 12.2331C77.0764 11.821 77.4023 11.6112 77.7395 11.6037H77.9193C78.0766 11.6037 78.1853 11.6449 78.2452 11.7274C78.3051 11.8098 78.3351 11.9484 78.3351 12.1432V12.9524C78.3351 13.1322 78.3201 13.2521 78.2902 13.312C78.2602 13.3645 78.2003 13.3907 78.1103 13.3907C77.8331 13.4057 77.672 13.4207 77.6271 13.4357C77.3573 13.4956 77.1176 13.7316 76.9078 14.1437C76.7055 14.5483 76.5556 15.0054 76.4582 15.5149C76.3608 16.0169 76.3121 16.5039 76.3121 16.9759V22.2807C76.3121 22.7602 76.2222 23 76.0424 23H75.0646Z"/>
<path d="M81.4034 24.5959C81.6057 24.5959 81.793 24.4236 81.9653 24.0789C82.1451 23.7343 82.235 23.3147 82.235 22.8202C82.235 22.6254 82.1601 22.2133 82.0103 21.5839L79.6501 12.3567C79.6351 12.2518 79.6276 12.1694 79.6276 12.1095C79.6276 11.8322 79.6838 11.6936 79.7962 11.6936H80.8639C81.0662 11.6936 81.1973 11.881 81.2572 12.2556L82.9543 19.943C82.9843 20.0254 83.003 20.0666 83.0105 20.0666C83.0405 20.0666 83.0555 20.0254 83.0555 19.943L84.4491 12.2893C84.5016 11.8922 84.6252 11.6936 84.82 11.6936H85.5842C85.7116 11.6936 85.7753 11.8435 85.7753 12.1432C85.7753 12.1582 85.7641 12.2443 85.7416 12.4017L83.7186 22.8427C83.5088 24.004 83.2428 24.8057 82.9206 25.2478C82.6059 25.6899 82.1863 25.9221 81.6618 25.9446H81.5157C80.9163 25.9446 80.5267 25.7948 80.3469 25.4951C80.3094 25.4276 80.2907 25.2928 80.2907 25.0905C80.2907 24.6259 80.3731 24.3936 80.5379 24.3936C80.5604 24.3936 80.6878 24.4274 80.9201 24.4948C81.1523 24.5622 81.3134 24.5959 81.4034 24.5959Z"/>
</mask>
<path d="M6.33848 23.1574C6.06126 23.1574 5.81775 23.1461 5.60795 23.1236C5.39816 23.1087 5.16214 23.0674 4.8999 23C4.64515 22.9326 4.42037 22.8427 4.22556 22.7303C4.03075 22.6104 3.82845 22.4493 3.61866 22.247C3.40887 22.0372 3.2253 21.7899 3.06795 21.5052C2.9181 21.2205 2.77199 20.8721 2.62963 20.46C2.48727 20.0404 2.37114 19.5684 2.28123 19.0439C2.19131 18.5194 2.12013 17.9088 2.06769 17.212C2.01524 16.5151 1.98901 15.7471 1.98901 14.908C1.98901 13.874 2.03022 12.9449 2.11264 12.1207C2.20255 11.289 2.31869 10.5885 2.46105 10.019C2.6109 9.44959 2.79822 8.95883 3.023 8.54673C3.25527 8.12715 3.48754 7.80122 3.71981 7.56895C3.95957 7.32918 4.24055 7.14187 4.56273 7.007C4.88491 6.86464 5.18462 6.77473 5.46185 6.73726C5.73907 6.69231 6.05751 6.66983 6.41716 6.66983C7.09149 6.66983 7.64595 6.76723 8.08052 6.96204C8.08801 6.96954 8.103 6.98077 8.12547 6.99576C8.14795 7.01074 8.16668 7.03322 8.18167 7.06319C8.19665 7.08567 8.20415 7.11939 8.20415 7.16434V8.25452C8.20415 8.34443 8.17792 8.38939 8.12547 8.38939C8.11798 8.38939 8.08801 8.3819 8.03556 8.36691C7.98311 8.35192 7.91193 8.33319 7.82202 8.31072C7.7396 8.28824 7.6422 8.26576 7.52981 8.24328C7.41742 8.21331 7.2863 8.19083 7.13645 8.17585C6.99409 8.16086 6.85547 8.15337 6.72061 8.15337C6.36845 8.15337 6.06126 8.19458 5.79901 8.277C5.54426 8.35192 5.28202 8.528 5.01229 8.80523C4.75005 9.07496 4.53276 9.44959 4.36043 9.92912C4.19559 10.4087 4.06072 11.068 3.95583 11.9072C3.85093 12.7389 3.79848 13.7391 3.79848 14.908C3.79848 16.0918 3.84344 17.1033 3.93335 17.9425C4.02326 18.7742 4.1394 19.4335 4.28176 19.9205C4.43161 20.4001 4.63016 20.7747 4.87742 21.0444C5.13217 21.3142 5.38317 21.4902 5.63043 21.5727C5.87769 21.6476 6.18114 21.6851 6.54078 21.6851C7.08775 21.6851 7.56353 21.6139 7.96813 21.4715C7.97562 21.4715 7.99061 21.5015 8.01308 21.5614C8.04305 21.6139 8.05804 21.6476 8.05804 21.6626V22.719C8.05804 22.734 8.04305 22.7715 8.01308 22.8314C7.99061 22.8839 7.97562 22.9138 7.96813 22.9213C7.54854 23.0787 7.00533 23.1574 6.33848 23.1574Z" fill="#9C0000"/>
<path d="M13.9248 23.0337C13.67 23.0937 13.3741 23.1236 13.0369 23.1236C12.6997 23.1236 12.4 23.0937 12.1378 23.0337C11.8755 22.9738 11.5871 22.8277 11.2724 22.5954C10.9577 22.3631 10.6992 22.0484 10.4969 21.6513C10.2946 21.2542 10.1223 20.6885 9.9799 19.9543C9.84503 19.2125 9.7776 18.3358 9.7776 17.3243C9.7776 16.5901 9.81131 15.9307 9.87875 15.3463C9.95367 14.7544 10.0473 14.2599 10.1597 13.8628C10.2796 13.4656 10.4295 13.1247 10.6093 12.84C10.7891 12.5478 10.9652 12.323 11.1375 12.1657C11.3173 12.0008 11.5234 11.8735 11.7557 11.7835C11.9954 11.6861 12.209 11.6262 12.3963 11.6037C12.5836 11.5738 12.7971 11.5588 13.0369 11.5588C13.2692 11.5588 13.479 11.5738 13.6663 11.6037C13.8611 11.6262 14.0746 11.6861 14.3069 11.7835C14.5392 11.8735 14.7415 12.0008 14.9138 12.1657C15.0861 12.323 15.2622 12.5478 15.442 12.84C15.6218 13.1247 15.768 13.4656 15.8803 13.8628C15.9927 14.2599 16.0826 14.7544 16.1501 15.3463C16.225 15.9307 16.2625 16.5901 16.2625 17.3243C16.2625 18.3358 16.1913 19.2125 16.0489 19.9543C15.9141 20.6885 15.7455 21.2542 15.5432 21.6513C15.3409 22.0484 15.0861 22.3631 14.7789 22.5954C14.4717 22.8277 14.187 22.9738 13.9248 23.0337ZM13.0257 21.8536C13.2804 21.8536 13.4939 21.8012 13.6663 21.6963C13.8461 21.5839 14.0147 21.3741 14.172 21.0669C14.3294 20.7597 14.4455 20.2952 14.5204 19.6733C14.6028 19.0514 14.6441 18.2684 14.6441 17.3243C14.6441 16.3728 14.6028 15.5861 14.5204 14.9642C14.4455 14.3423 14.3256 13.8852 14.1608 13.593C14.0034 13.2933 13.8386 13.091 13.6663 12.9861C13.4939 12.8812 13.2804 12.8288 13.0257 12.8288C12.7709 12.8288 12.5536 12.8812 12.3738 12.9861C12.2015 13.091 12.0366 13.2933 11.8793 13.593C11.7219 13.8927 11.6021 14.3535 11.5196 14.9754C11.4447 15.5898 11.4072 16.3728 11.4072 17.3243C11.4072 18.2684 11.4447 19.0514 11.5196 19.6733C11.5946 20.2952 11.7107 20.7597 11.868 21.0669C12.0254 21.3741 12.1902 21.5839 12.3626 21.6963C12.5424 21.8012 12.7634 21.8536 13.0257 21.8536Z" fill="#9C0000"/>
<path d="M22.2416 23.0337C21.9868 23.0937 21.6909 23.1236 21.3537 23.1236C21.0165 23.1236 20.7168 23.0937 20.4546 23.0337C20.1923 22.9738 19.9039 22.8277 19.5892 22.5954C19.2745 22.3631 19.016 22.0484 18.8137 21.6513C18.6114 21.2542 18.4391 20.6885 18.2967 19.9543C18.1618 19.2125 18.0944 18.3358 18.0944 17.3243C18.0944 16.5901 18.1281 15.9307 18.1956 15.3463C18.2705 14.7544 18.3641 14.2599 18.4765 13.8628C18.5964 13.4656 18.7463 13.1247 18.9261 12.84C19.1059 12.5478 19.282 12.323 19.4543 12.1657C19.6341 12.0008 19.8402 11.8735 20.0725 11.7835C20.3122 11.6861 20.5258 11.6262 20.7131 11.6037C20.9004 11.5738 21.1139 11.5588 21.3537 11.5588C21.586 11.5588 21.7958 11.5738 21.9831 11.6037C22.1779 11.6262 22.3914 11.6861 22.6237 11.7835C22.856 11.8735 23.0583 12.0008 23.2306 12.1657C23.4029 12.323 23.579 12.5478 23.7588 12.84C23.9387 13.1247 24.0848 13.4656 24.1972 13.8628C24.3095 14.2599 24.3995 14.7544 24.4669 15.3463C24.5418 15.9307 24.5793 16.5901 24.5793 17.3243C24.5793 18.3358 24.5081 19.2125 24.3657 19.9543C24.2309 20.6885 24.0623 21.2542 23.86 21.6513C23.6577 22.0484 23.4029 22.3631 23.0957 22.5954C22.7885 22.8277 22.5038 22.9738 22.2416 23.0337ZM21.3425 21.8536C21.5972 21.8536 21.8108 21.8012 21.9831 21.6963C22.1629 21.5839 22.3315 21.3741 22.4888 21.0669C22.6462 20.7597 22.7623 20.2952 22.8372 19.6733C22.9197 19.0514 22.9609 18.2684 22.9609 17.3243C22.9609 16.3728 22.9197 15.5861 22.8372 14.9642C22.7623 14.3423 22.6424 13.8852 22.4776 13.593C22.3203 13.2933 22.1554 13.091 21.9831 12.9861C21.8108 12.8812 21.5972 12.8288 21.3425 12.8288C21.0877 12.8288 20.8704 12.8812 20.6906 12.9861C20.5183 13.091 20.3534 13.2933 20.1961 13.593C20.0387 13.8927 19.9189 14.3535 19.8364 14.9754C19.7615 15.5898 19.7241 16.3728 19.7241 17.3243C19.7241 18.2684 19.7615 19.0514 19.8364 19.6733C19.9114 20.2952 20.0275 20.7597 20.1849 21.0669C20.3422 21.3741 20.507 21.5839 20.6794 21.6963C20.8592 21.8012 21.0802 21.8536 21.3425 21.8536Z" fill="#9C0000"/>
<path d="M26.9395 23C26.7596 23 26.6697 22.764 26.6697 22.292V7.54647C26.6697 7.07443 26.7596 6.83841 26.9395 6.83841H27.9285C28.1083 6.83841 28.1982 7.07443 28.1982 7.54647V17.1333C28.1982 17.2382 28.2169 17.2906 28.2544 17.2906C28.2694 17.2831 28.2806 17.2719 28.2881 17.2569C28.5129 16.7324 28.7714 16.2005 29.0636 15.661C29.3558 15.1215 29.693 14.5221 30.0751 13.8628C30.4647 13.1959 30.7532 12.6902 30.9405 12.3455C31.1803 11.9109 31.3676 11.6936 31.5025 11.6936H32.5589C32.6339 11.6936 32.6713 11.7723 32.6713 11.9297C32.6713 12.0495 32.6301 12.1844 32.5477 12.3343L30.3224 16.4365C30.2924 16.5114 30.2774 16.5713 30.2774 16.6163C30.2774 16.6388 30.2924 16.695 30.3224 16.7849L32.7275 22.3144C32.7874 22.4568 32.8174 22.5842 32.8174 22.6966C32.8174 22.8989 32.7762 23 32.6938 23H31.5699C31.45 23 31.3039 22.7977 31.1316 22.3931L29.0973 17.5491C29.0674 17.4742 29.0374 17.4367 29.0074 17.4367C28.9849 17.4367 28.9625 17.463 28.94 17.5154C28.8875 17.5828 28.8051 17.7439 28.6927 17.9987C28.5878 18.2459 28.4904 18.4782 28.4005 18.6955L28.2657 19.0214C28.2207 19.1338 28.1982 19.2837 28.1982 19.471V22.292C28.1982 22.764 28.1083 23 27.9285 23H26.9395Z" fill="#9C0000"/>
<path d="M36.324 20.5499C36.6387 21.4191 37.0358 21.8536 37.5153 21.8536C37.9948 21.8536 38.3695 21.4828 38.6392 20.741C38.9164 19.9992 39.055 18.8453 39.055 17.2794C39.055 15.8033 38.9164 14.6944 38.6392 13.9527C38.3695 13.2034 38.0023 12.8288 37.5378 12.8288C37.0657 12.8288 36.6649 13.2409 36.3352 14.0651C36.013 14.8892 35.8519 15.9607 35.8519 17.2794C35.8519 18.5831 36.0093 19.6733 36.324 20.5499ZM37.8187 23.1236C36.6574 23.1236 35.8594 22.3332 35.4249 20.7522C35.4099 20.7148 35.3949 20.696 35.3799 20.696C35.3499 20.696 35.3087 20.8908 35.2563 21.2804C35.2113 21.6626 35.1476 22.0447 35.0652 22.4268C34.9828 22.8089 34.8854 23 34.773 23H34.5482C34.3984 23 34.3234 22.779 34.3234 22.3369V7.63638C34.3234 7.1044 34.4171 6.83841 34.6044 6.83841H35.5822C35.6646 6.83841 35.7283 6.91334 35.7733 7.06319C35.8257 7.20555 35.8519 7.39661 35.8519 7.63638V13.2558C35.8519 13.3533 35.8669 13.402 35.8969 13.402L35.9531 13.3458C36.1704 12.7538 36.4551 12.308 36.8072 12.0083C37.1669 11.7086 37.5528 11.5588 37.9649 11.5588C38.3245 11.5588 38.6542 11.6562 38.9539 11.851C39.2536 12.0383 39.5308 12.3455 39.7856 12.7726C40.0478 13.1922 40.2539 13.7953 40.4037 14.582C40.5536 15.3613 40.6285 16.2904 40.6285 17.3693C40.6285 18.201 40.5723 18.9502 40.4599 19.6171C40.355 20.2764 40.2089 20.8234 40.0216 21.258C39.8418 21.6851 39.6282 22.0447 39.381 22.3369C39.1337 22.6216 38.879 22.8239 38.6167 22.9438C38.362 23.0637 38.096 23.1236 37.8187 23.1236Z" fill="#9C0000"/>
<path d="M46.5626 23.0337C46.3079 23.0937 46.0119 23.1236 45.6748 23.1236C45.3376 23.1236 45.0379 23.0937 44.7757 23.0337C44.5134 22.9738 44.2249 22.8277 43.9103 22.5954C43.5956 22.3631 43.3371 22.0484 43.1348 21.6513C42.9325 21.2542 42.7601 20.6885 42.6178 19.9543C42.4829 19.2125 42.4155 18.3358 42.4155 17.3243C42.4155 16.5901 42.4492 15.9307 42.5166 15.3463C42.5916 14.7544 42.6852 14.2599 42.7976 13.8628C42.9175 13.4656 43.0673 13.1247 43.2472 12.84C43.427 12.5478 43.6031 12.323 43.7754 12.1657C43.9552 12.0008 44.1613 11.8735 44.3935 11.7835C44.6333 11.6861 44.8468 11.6262 45.0341 11.6037C45.2215 11.5738 45.435 11.5588 45.6748 11.5588C45.907 11.5588 46.1168 11.5738 46.3041 11.6037C46.499 11.6262 46.7125 11.6861 46.9448 11.7835C47.177 11.8735 47.3793 12.0008 47.5517 12.1657C47.724 12.323 47.9001 12.5478 48.0799 12.84C48.2597 13.1247 48.4058 13.4656 48.5182 13.8628C48.6306 14.2599 48.7205 14.7544 48.788 15.3463C48.8629 15.9307 48.9003 16.5901 48.9003 17.3243C48.9003 18.3358 48.8292 19.2125 48.6868 19.9543C48.5519 20.6885 48.3834 21.2542 48.181 21.6513C47.9787 22.0484 47.724 22.3631 47.4168 22.5954C47.1096 22.8277 46.8249 22.9738 46.5626 23.0337ZM45.6635 21.8536C45.9183 21.8536 46.1318 21.8012 46.3041 21.6963C46.484 21.5839 46.6526 21.3741 46.8099 21.0669C46.9672 20.7597 47.0834 20.2952 47.1583 19.6733C47.2407 19.0514 47.2819 18.2684 47.2819 17.3243C47.2819 16.3728 47.2407 15.5861 47.1583 14.9642C47.0834 14.3423 46.9635 13.8852 46.7987 13.593C46.6413 13.2933 46.4765 13.091 46.3041 12.9861C46.1318 12.8812 45.9183 12.8288 45.6635 12.8288C45.4088 12.8288 45.1915 12.8812 45.0117 12.9861C44.8393 13.091 44.6745 13.2933 44.5172 13.593C44.3598 13.8927 44.2399 14.3535 44.1575 14.9754C44.0826 15.5898 44.0451 16.3728 44.0451 17.3243C44.0451 18.2684 44.0826 19.0514 44.1575 19.6733C44.2324 20.2952 44.3486 20.7597 44.5059 21.0669C44.6633 21.3741 44.8281 21.5839 45.0004 21.6963C45.1803 21.8012 45.4013 21.8536 45.6635 21.8536Z" fill="#9C0000"/>
<path d="M54.8795 23.0337C54.6247 23.0937 54.3287 23.1236 53.9916 23.1236C53.6544 23.1236 53.3547 23.0937 53.0925 23.0337C52.8302 22.9738 52.5418 22.8277 52.2271 22.5954C51.9124 22.3631 51.6539 22.0484 51.4516 21.6513C51.2493 21.2542 51.0769 20.6885 50.9346 19.9543C50.7997 19.2125 50.7323 18.3358 50.7323 17.3243C50.7323 16.5901 50.766 15.9307 50.8334 15.3463C50.9084 14.7544 51.002 14.2599 51.1144 13.8628C51.2343 13.4656 51.3841 13.1247 51.564 12.84C51.7438 12.5478 51.9199 12.323 52.0922 12.1657C52.272 12.0008 52.4781 11.8735 52.7103 11.7835C52.9501 11.6861 53.1636 11.6262 53.351 11.6037C53.5383 11.5738 53.7518 11.5588 53.9916 11.5588C54.2239 11.5588 54.4336 11.5738 54.621 11.6037C54.8158 11.6262 55.0293 11.6861 55.2616 11.7835C55.4939 11.8735 55.6962 12.0008 55.8685 12.1657C56.0408 12.323 56.2169 12.5478 56.3967 12.84C56.5765 13.1247 56.7226 13.4656 56.835 13.8628C56.9474 14.2599 57.0373 14.7544 57.1048 15.3463C57.1797 15.9307 57.2172 16.5901 57.2172 17.3243C57.2172 18.3358 57.146 19.2125 57.0036 19.9543C56.8687 20.6885 56.7002 21.2542 56.4979 21.6513C56.2956 22.0484 56.0408 22.3631 55.7336 22.5954C55.4264 22.8277 55.1417 22.9738 54.8795 23.0337ZM53.9803 21.8536C54.2351 21.8536 54.4486 21.8012 54.621 21.6963C54.8008 21.5839 54.9694 21.3741 55.1267 21.0669C55.2841 20.7597 55.4002 20.2952 55.4751 19.6733C55.5575 19.0514 55.5988 18.2684 55.5988 17.3243C55.5988 16.3728 55.5575 15.5861 55.4751 14.9642C55.4002 14.3423 55.2803 13.8852 55.1155 13.593C54.9581 13.2933 54.7933 13.091 54.621 12.9861C54.4486 12.8812 54.2351 12.8288 53.9803 12.8288C53.7256 12.8288 53.5083 12.8812 53.3285 12.9861C53.1562 13.091 52.9913 13.2933 52.834 13.593C52.6766 13.8927 52.5567 14.3535 52.4743 14.9754C52.3994 15.5898 52.3619 16.3728 52.3619 17.3243C52.3619 18.2684 52.3994 19.0514 52.4743 19.6733C52.5493 20.2952 52.6654 20.7597 52.8227 21.0669C52.9801 21.3741 53.1449 21.5839 53.3172 21.6963C53.4971 21.8012 53.7181 21.8536 53.9803 21.8536Z" fill="#9C0000"/>
<path d="M59.5773 23C59.3975 23 59.3076 22.764 59.3076 22.292V7.54647C59.3076 7.07443 59.3975 6.83841 59.5773 6.83841H60.5664C60.7462 6.83841 60.8361 7.07443 60.8361 7.54647V17.1333C60.8361 17.2382 60.8548 17.2906 60.8923 17.2906C60.9073 17.2831 60.9185 17.2719 60.926 17.2569C61.1508 16.7324 61.4093 16.2005 61.7015 15.661C61.9937 15.1215 62.3309 14.5221 62.713 13.8628C63.1026 13.1959 63.3911 12.6902 63.5784 12.3455C63.8182 11.9109 64.0055 11.6936 64.1403 11.6936H65.1968C65.2717 11.6936 65.3092 11.7723 65.3092 11.9297C65.3092 12.0495 65.268 12.1844 65.1856 12.3343L62.9603 16.4365C62.9303 16.5114 62.9153 16.5713 62.9153 16.6163C62.9153 16.6388 62.9303 16.695 62.9603 16.7849L65.3654 22.3144C65.4253 22.4568 65.4553 22.5842 65.4553 22.6966C65.4553 22.8989 65.4141 23 65.3317 23H64.2078C64.0879 23 63.9418 22.7977 63.7695 22.3931L61.7352 17.5491C61.7052 17.4742 61.6753 17.4367 61.6453 17.4367C61.6228 17.4367 61.6003 17.463 61.5779 17.5154C61.5254 17.5828 61.443 17.7439 61.3306 17.9987C61.2257 18.2459 61.1283 18.4782 61.0384 18.6955L60.9035 19.0214C60.8586 19.1338 60.8361 19.2837 60.8361 19.471V22.292C60.8361 22.764 60.7462 23 60.5664 23H59.5773Z" fill="#9C0000"/>
<path d="M68.2875 16.6837H71.2771C71.2921 16.6837 71.2995 16.6163 71.2995 16.4814C71.2546 15.2152 71.116 14.2898 70.8837 13.7054C70.6514 13.1135 70.2918 12.8175 69.8048 12.8175C68.8982 12.8175 68.3812 13.904 68.2538 16.0768C68.2538 16.4814 68.265 16.6837 68.2875 16.6837ZM72.5471 20.2352C72.5471 21.0669 72.326 21.7562 71.884 22.3032C71.4494 22.8502 70.8013 23.1236 69.9396 23.1236C67.7443 23.1236 66.6466 21.1943 66.6466 17.3356C66.6466 16.384 66.7103 15.5523 66.8377 14.8405C66.9726 14.1212 67.1411 13.5593 67.3434 13.1547C67.5457 12.7426 67.793 12.4129 68.0852 12.1657C68.3774 11.9109 68.6584 11.7461 68.9281 11.6712C69.2054 11.5887 69.5051 11.5475 69.8272 11.5475C71.7004 11.5475 72.637 13.3233 72.637 16.8748C72.637 17.4143 72.5246 17.684 72.2998 17.684H68.3212C68.2688 17.684 68.2426 17.7627 68.2426 17.92C68.2426 18.6618 68.2988 19.3174 68.4111 19.8868C68.5235 20.4563 68.7146 20.9283 68.9843 21.3029C69.2615 21.6701 69.6025 21.8536 70.0071 21.8536C70.2843 21.8536 70.5166 21.7899 70.7039 21.6626C70.8987 21.5277 71.041 21.3366 71.131 21.0894C71.2284 20.8421 71.2921 20.6323 71.322 20.46C71.3595 20.2802 71.3932 20.0517 71.4232 19.7744C71.4382 19.6246 71.4869 19.5497 71.5693 19.5497H72.3335C72.4759 19.5497 72.5471 19.7033 72.5471 20.0105V20.2352Z" fill="#9C0000"/>
<path d="M75.0646 23C74.8773 23 74.7836 22.7602 74.7836 22.2807V12.559C74.7836 11.9821 74.8585 11.6936 75.0084 11.6936H75.3231C75.4055 11.6936 75.4692 11.7461 75.5142 11.851C75.5591 11.9559 75.6041 12.1432 75.649 12.4129L75.8513 13.9639C75.8813 14.0913 75.9075 14.155 75.93 14.155C75.96 14.155 75.9824 14.0913 75.9974 13.9639C76.1997 13.2221 76.4545 12.6452 76.7617 12.2331C77.0764 11.821 77.4023 11.6112 77.7395 11.6037H77.9193C78.0766 11.6037 78.1853 11.6449 78.2452 11.7274C78.3051 11.8098 78.3351 11.9484 78.3351 12.1432V12.9524C78.3351 13.1322 78.3201 13.2521 78.2902 13.312C78.2602 13.3645 78.2003 13.3907 78.1103 13.3907C77.8331 13.4057 77.672 13.4207 77.6271 13.4357C77.3573 13.4956 77.1176 13.7316 76.9078 14.1437C76.7055 14.5483 76.5556 15.0054 76.4582 15.5149C76.3608 16.0169 76.3121 16.5039 76.3121 16.9759V22.2807C76.3121 22.7602 76.2222 23 76.0424 23H75.0646Z" fill="#9C0000"/>
<path d="M81.4034 24.5959C81.6057 24.5959 81.793 24.4236 81.9653 24.0789C82.1451 23.7343 82.235 23.3147 82.235 22.8202C82.235 22.6254 82.1601 22.2133 82.0103 21.5839L79.6501 12.3567C79.6351 12.2518 79.6276 12.1694 79.6276 12.1095C79.6276 11.8322 79.6838 11.6936 79.7962 11.6936H80.8639C81.0662 11.6936 81.1973 11.881 81.2572 12.2556L82.9543 19.943C82.9843 20.0254 83.003 20.0666 83.0105 20.0666C83.0405 20.0666 83.0555 20.0254 83.0555 19.943L84.4491 12.2893C84.5016 11.8922 84.6252 11.6936 84.82 11.6936H85.5842C85.7116 11.6936 85.7753 11.8435 85.7753 12.1432C85.7753 12.1582 85.7641 12.2443 85.7416 12.4017L83.7186 22.8427C83.5088 24.004 83.2428 24.8057 82.9206 25.2478C82.6059 25.6899 82.1863 25.9221 81.6618 25.9446H81.5157C80.9163 25.9446 80.5267 25.7948 80.3469 25.4951C80.3094 25.4276 80.2907 25.2928 80.2907 25.0905C80.2907 24.6259 80.3731 24.3936 80.5379 24.3936C80.5604 24.3936 80.6878 24.4274 80.9201 24.4948C81.1523 24.5622 81.3134 24.5959 81.4034 24.5959Z" fill="#9C0000"/>
<path d="M6.33848 23.1574C6.06126 23.1574 5.81775 23.1461 5.60795 23.1236C5.39816 23.1087 5.16214 23.0674 4.8999 23C4.64515 22.9326 4.42037 22.8427 4.22556 22.7303C4.03075 22.6104 3.82845 22.4493 3.61866 22.247C3.40887 22.0372 3.2253 21.7899 3.06795 21.5052C2.9181 21.2205 2.77199 20.8721 2.62963 20.46C2.48727 20.0404 2.37114 19.5684 2.28123 19.0439C2.19131 18.5194 2.12013 17.9088 2.06769 17.212C2.01524 16.5151 1.98901 15.7471 1.98901 14.908C1.98901 13.874 2.03022 12.9449 2.11264 12.1207C2.20255 11.289 2.31869 10.5885 2.46105 10.019C2.6109 9.44959 2.79822 8.95883 3.023 8.54673C3.25527 8.12715 3.48754 7.80122 3.71981 7.56895C3.95957 7.32918 4.24055 7.14187 4.56273 7.007C4.88491 6.86464 5.18462 6.77473 5.46185 6.73726C5.73907 6.69231 6.05751 6.66983 6.41716 6.66983C7.09149 6.66983 7.64595 6.76723 8.08052 6.96204C8.08801 6.96954 8.103 6.98077 8.12547 6.99576C8.14795 7.01074 8.16668 7.03322 8.18167 7.06319C8.19665 7.08567 8.20415 7.11939 8.20415 7.16434V8.25452C8.20415 8.34443 8.17792 8.38939 8.12547 8.38939C8.11798 8.38939 8.08801 8.3819 8.03556 8.36691C7.98311 8.35192 7.91193 8.33319 7.82202 8.31072C7.7396 8.28824 7.6422 8.26576 7.52981 8.24328C7.41742 8.21331 7.2863 8.19083 7.13645 8.17585C6.99409 8.16086 6.85547 8.15337 6.72061 8.15337C6.36845 8.15337 6.06126 8.19458 5.79901 8.277C5.54426 8.35192 5.28202 8.528 5.01229 8.80523C4.75005 9.07496 4.53276 9.44959 4.36043 9.92912C4.19559 10.4087 4.06072 11.068 3.95583 11.9072C3.85093 12.7389 3.79848 13.7391 3.79848 14.908C3.79848 16.0918 3.84344 17.1033 3.93335 17.9425C4.02326 18.7742 4.1394 19.4335 4.28176 19.9205C4.43161 20.4001 4.63016 20.7747 4.87742 21.0444C5.13217 21.3142 5.38317 21.4902 5.63043 21.5727C5.87769 21.6476 6.18114 21.6851 6.54078 21.6851C7.08775 21.6851 7.56353 21.6139 7.96813 21.4715C7.97562 21.4715 7.99061 21.5015 8.01308 21.5614C8.04305 21.6139 8.05804 21.6476 8.05804 21.6626V22.719C8.05804 22.734 8.04305 22.7715 8.01308 22.8314C7.99061 22.8839 7.97562 22.9138 7.96813 22.9213C7.54854 23.0787 7.00533 23.1574 6.33848 23.1574Z" stroke="white" stroke-width="3.5" mask="url(#path-1-outside-1)"/>
<path d="M13.9248 23.0337C13.67 23.0937 13.3741 23.1236 13.0369 23.1236C12.6997 23.1236 12.4 23.0937 12.1378 23.0337C11.8755 22.9738 11.5871 22.8277 11.2724 22.5954C10.9577 22.3631 10.6992 22.0484 10.4969 21.6513C10.2946 21.2542 10.1223 20.6885 9.9799 19.9543C9.84503 19.2125 9.7776 18.3358 9.7776 17.3243C9.7776 16.5901 9.81131 15.9307 9.87875 15.3463C9.95367 14.7544 10.0473 14.2599 10.1597 13.8628C10.2796 13.4656 10.4295 13.1247 10.6093 12.84C10.7891 12.5478 10.9652 12.323 11.1375 12.1657C11.3173 12.0008 11.5234 11.8735 11.7557 11.7835C11.9954 11.6861 12.209 11.6262 12.3963 11.6037C12.5836 11.5738 12.7971 11.5588 13.0369 11.5588C13.2692 11.5588 13.479 11.5738 13.6663 11.6037C13.8611 11.6262 14.0746 11.6861 14.3069 11.7835C14.5392 11.8735 14.7415 12.0008 14.9138 12.1657C15.0861 12.323 15.2622 12.5478 15.442 12.84C15.6218 13.1247 15.768 13.4656 15.8803 13.8628C15.9927 14.2599 16.0826 14.7544 16.1501 15.3463C16.225 15.9307 16.2625 16.5901 16.2625 17.3243C16.2625 18.3358 16.1913 19.2125 16.0489 19.9543C15.9141 20.6885 15.7455 21.2542 15.5432 21.6513C15.3409 22.0484 15.0861 22.3631 14.7789 22.5954C14.4717 22.8277 14.187 22.9738 13.9248 23.0337ZM13.0257 21.8536C13.2804 21.8536 13.4939 21.8012 13.6663 21.6963C13.8461 21.5839 14.0147 21.3741 14.172 21.0669C14.3294 20.7597 14.4455 20.2952 14.5204 19.6733C14.6028 19.0514 14.6441 18.2684 14.6441 17.3243C14.6441 16.3728 14.6028 15.5861 14.5204 14.9642C14.4455 14.3423 14.3256 13.8852 14.1608 13.593C14.0034 13.2933 13.8386 13.091 13.6663 12.9861C13.4939 12.8812 13.2804 12.8288 13.0257 12.8288C12.7709 12.8288 12.5536 12.8812 12.3738 12.9861C12.2015 13.091 12.0366 13.2933 11.8793 13.593C11.7219 13.8927 11.6021 14.3535 11.5196 14.9754C11.4447 15.5898 11.4072 16.3728 11.4072 17.3243C11.4072 18.2684 11.4447 19.0514 11.5196 19.6733C11.5946 20.2952 11.7107 20.7597 11.868 21.0669C12.0254 21.3741 12.1902 21.5839 12.3626 21.6963C12.5424 21.8012 12.7634 21.8536 13.0257 21.8536Z" stroke="white" stroke-width="3.5" mask="url(#path-1-outside-1)"/>
<path d="M22.2416 23.0337C21.9868 23.0937 21.6909 23.1236 21.3537 23.1236C21.0165 23.1236 20.7168 23.0937 20.4546 23.0337C20.1923 22.9738 19.9039 22.8277 19.5892 22.5954C19.2745 22.3631 19.016 22.0484 18.8137 21.6513C18.6114 21.2542 18.4391 20.6885 18.2967 19.9543C18.1618 19.2125 18.0944 18.3358 18.0944 17.3243C18.0944 16.5901 18.1281 15.9307 18.1956 15.3463C18.2705 14.7544 18.3641 14.2599 18.4765 13.8628C18.5964 13.4656 18.7463 13.1247 18.9261 12.84C19.1059 12.5478 19.282 12.323 19.4543 12.1657C19.6341 12.0008 19.8402 11.8735 20.0725 11.7835C20.3122 11.6861 20.5258 11.6262 20.7131 11.6037C20.9004 11.5738 21.1139 11.5588 21.3537 11.5588C21.586 11.5588 21.7958 11.5738 21.9831 11.6037C22.1779 11.6262 22.3914 11.6861 22.6237 11.7835C22.856 11.8735 23.0583 12.0008 23.2306 12.1657C23.4029 12.323 23.579 12.5478 23.7588 12.84C23.9387 13.1247 24.0848 13.4656 24.1972 13.8628C24.3095 14.2599 24.3995 14.7544 24.4669 15.3463C24.5418 15.9307 24.5793 16.5901 24.5793 17.3243C24.5793 18.3358 24.5081 19.2125 24.3657 19.9543C24.2309 20.6885 24.0623 21.2542 23.86 21.6513C23.6577 22.0484 23.4029 22.3631 23.0957 22.5954C22.7885 22.8277 22.5038 22.9738 22.2416 23.0337ZM21.3425 21.8536C21.5972 21.8536 21.8108 21.8012 21.9831 21.6963C22.1629 21.5839 22.3315 21.3741 22.4888 21.0669C22.6462 20.7597 22.7623 20.2952 22.8372 19.6733C22.9197 19.0514 22.9609 18.2684 22.9609 17.3243C22.9609 16.3728 22.9197 15.5861 22.8372 14.9642C22.7623 14.3423 22.6424 13.8852 22.4776 13.593C22.3203 13.2933 22.1554 13.091 21.9831 12.9861C21.8108 12.8812 21.5972 12.8288 21.3425 12.8288C21.0877 12.8288 20.8704 12.8812 20.6906 12.9861C20.5183 13.091 20.3534 13.2933 20.1961 13.593C20.0387 13.8927 19.9189 14.3535 19.8364 14.9754C19.7615 15.5898 19.7241 16.3728 19.7241 17.3243C19.7241 18.2684 19.7615 19.0514 19.8364 19.6733C19.9114 20.2952 20.0275 20.7597 20.1849 21.0669C20.3422 21.3741 20.507 21.5839 20.6794 21.6963C20.8592 21.8012 21.0802 21.8536 21.3425 21.8536Z" stroke="white" stroke-width="3.5" mask="url(#path-1-outside-1)"/>
<path d="M26.9395 23C26.7596 23 26.6697 22.764 26.6697 22.292V7.54647C26.6697 7.07443 26.7596 6.83841 26.9395 6.83841H27.9285C28.1083 6.83841 28.1982 7.07443 28.1982 7.54647V17.1333C28.1982 17.2382 28.2169 17.2906 28.2544 17.2906C28.2694 17.2831 28.2806 17.2719 28.2881 17.2569C28.5129 16.7324 28.7714 16.2005 29.0636 15.661C29.3558 15.1215 29.693 14.5221 30.0751 13.8628C30.4647 13.1959 30.7532 12.6902 30.9405 12.3455C31.1803 11.9109 31.3676 11.6936 31.5025 11.6936H32.5589C32.6339 11.6936 32.6713 11.7723 32.6713 11.9297C32.6713 12.0495 32.6301 12.1844 32.5477 12.3343L30.3224 16.4365C30.2924 16.5114 30.2774 16.5713 30.2774 16.6163C30.2774 16.6388 30.2924 16.695 30.3224 16.7849L32.7275 22.3144C32.7874 22.4568 32.8174 22.5842 32.8174 22.6966C32.8174 22.8989 32.7762 23 32.6938 23H31.5699C31.45 23 31.3039 22.7977 31.1316 22.3931L29.0973 17.5491C29.0674 17.4742 29.0374 17.4367 29.0074 17.4367C28.9849 17.4367 28.9625 17.463 28.94 17.5154C28.8875 17.5828 28.8051 17.7439 28.6927 17.9987C28.5878 18.2459 28.4904 18.4782 28.4005 18.6955L28.2657 19.0214C28.2207 19.1338 28.1982 19.2837 28.1982 19.471V22.292C28.1982 22.764 28.1083 23 27.9285 23H26.9395Z" stroke="white" stroke-width="3.5" mask="url(#path-1-outside-1)"/>
<path d="M36.324 20.5499C36.6387 21.4191 37.0358 21.8536 37.5153 21.8536C37.9948 21.8536 38.3695 21.4828 38.6392 20.741C38.9164 19.9992 39.055 18.8453 39.055 17.2794C39.055 15.8033 38.9164 14.6944 38.6392 13.9527C38.3695 13.2034 38.0023 12.8288 37.5378 12.8288C37.0657 12.8288 36.6649 13.2409 36.3352 14.0651C36.013 14.8892 35.8519 15.9607 35.8519 17.2794C35.8519 18.5831 36.0093 19.6733 36.324 20.5499ZM37.8187 23.1236C36.6574 23.1236 35.8594 22.3332 35.4249 20.7522C35.4099 20.7148 35.3949 20.696 35.3799 20.696C35.3499 20.696 35.3087 20.8908 35.2563 21.2804C35.2113 21.6626 35.1476 22.0447 35.0652 22.4268C34.9828 22.8089 34.8854 23 34.773 23H34.5482C34.3984 23 34.3234 22.779 34.3234 22.3369V7.63638C34.3234 7.1044 34.4171 6.83841 34.6044 6.83841H35.5822C35.6646 6.83841 35.7283 6.91334 35.7733 7.06319C35.8257 7.20555 35.8519 7.39661 35.8519 7.63638V13.2558C35.8519 13.3533 35.8669 13.402 35.8969 13.402L35.9531 13.3458C36.1704 12.7538 36.4551 12.308 36.8072 12.0083C37.1669 11.7086 37.5528 11.5588 37.9649 11.5588C38.3245 11.5588 38.6542 11.6562 38.9539 11.851C39.2536 12.0383 39.5308 12.3455 39.7856 12.7726C40.0478 13.1922 40.2539 13.7953 40.4037 14.582C40.5536 15.3613 40.6285 16.2904 40.6285 17.3693C40.6285 18.201 40.5723 18.9502 40.4599 19.6171C40.355 20.2764 40.2089 20.8234 40.0216 21.258C39.8418 21.6851 39.6282 22.0447 39.381 22.3369C39.1337 22.6216 38.879 22.8239 38.6167 22.9438C38.362 23.0637 38.096 23.1236 37.8187 23.1236Z" stroke="white" stroke-width="3.5" mask="url(#path-1-outside-1)"/>
<path d="M46.5626 23.0337C46.3079 23.0937 46.0119 23.1236 45.6748 23.1236C45.3376 23.1236 45.0379 23.0937 44.7757 23.0337C44.5134 22.9738 44.2249 22.8277 43.9103 22.5954C43.5956 22.3631 43.3371 22.0484 43.1348 21.6513C42.9325 21.2542 42.7601 20.6885 42.6178 19.9543C42.4829 19.2125 42.4155 18.3358 42.4155 17.3243C42.4155 16.5901 42.4492 15.9307 42.5166 15.3463C42.5916 14.7544 42.6852 14.2599 42.7976 13.8628C42.9175 13.4656 43.0673 13.1247 43.2472 12.84C43.427 12.5478 43.6031 12.323 43.7754 12.1657C43.9552 12.0008 44.1613 11.8735 44.3935 11.7835C44.6333 11.6861 44.8468 11.6262 45.0341 11.6037C45.2215 11.5738 45.435 11.5588 45.6748 11.5588C45.907 11.5588 46.1168 11.5738 46.3041 11.6037C46.499 11.6262 46.7125 11.6861 46.9448 11.7835C47.177 11.8735 47.3793 12.0008 47.5517 12.1657C47.724 12.323 47.9001 12.5478 48.0799 12.84C48.2597 13.1247 48.4058 13.4656 48.5182 13.8628C48.6306 14.2599 48.7205 14.7544 48.788 15.3463C48.8629 15.9307 48.9003 16.5901 48.9003 17.3243C48.9003 18.3358 48.8292 19.2125 48.6868 19.9543C48.5519 20.6885 48.3834 21.2542 48.181 21.6513C47.9787 22.0484 47.724 22.3631 47.4168 22.5954C47.1096 22.8277 46.8249 22.9738 46.5626 23.0337ZM45.6635 21.8536C45.9183 21.8536 46.1318 21.8012 46.3041 21.6963C46.484 21.5839 46.6526 21.3741 46.8099 21.0669C46.9672 20.7597 47.0834 20.2952 47.1583 19.6733C47.2407 19.0514 47.2819 18.2684 47.2819 17.3243C47.2819 16.3728 47.2407 15.5861 47.1583 14.9642C47.0834 14.3423 46.9635 13.8852 46.7987 13.593C46.6413 13.2933 46.4765 13.091 46.3041 12.9861C46.1318 12.8812 45.9183 12.8288 45.6635 12.8288C45.4088 12.8288 45.1915 12.8812 45.0117 12.9861C44.8393 13.091 44.6745 13.2933 44.5172 13.593C44.3598 13.8927 44.2399 14.3535 44.1575 14.9754C44.0826 15.5898 44.0451 16.3728 44.0451 17.3243C44.0451 18.2684 44.0826 19.0514 44.1575 19.6733C44.2324 20.2952 44.3486 20.7597 44.5059 21.0669C44.6633 21.3741 44.8281 21.5839 45.0004 21.6963C45.1803 21.8012 45.4013 21.8536 45.6635 21.8536Z" stroke="white" stroke-width="3.5" mask="url(#path-1-outside-1)"/>
<path d="M54.8795 23.0337C54.6247 23.0937 54.3287 23.1236 53.9916 23.1236C53.6544 23.1236 53.3547 23.0937 53.0925 23.0337C52.8302 22.9738 52.5418 22.8277 52.2271 22.5954C51.9124 22.3631 51.6539 22.0484 51.4516 21.6513C51.2493 21.2542 51.0769 20.6885 50.9346 19.9543C50.7997 19.2125 50.7323 18.3358 50.7323 17.3243C50.7323 16.5901 50.766 15.9307 50.8334 15.3463C50.9084 14.7544 51.002 14.2599 51.1144 13.8628C51.2343 13.4656 51.3841 13.1247 51.564 12.84C51.7438 12.5478 51.9199 12.323 52.0922 12.1657C52.272 12.0008 52.4781 11.8735 52.7103 11.7835C52.9501 11.6861 53.1636 11.6262 53.351 11.6037C53.5383 11.5738 53.7518 11.5588 53.9916 11.5588C54.2239 11.5588 54.4336 11.5738 54.621 11.6037C54.8158 11.6262 55.0293 11.6861 55.2616 11.7835C55.4939 11.8735 55.6962 12.0008 55.8685 12.1657C56.0408 12.323 56.2169 12.5478 56.3967 12.84C56.5765 13.1247 56.7226 13.4656 56.835 13.8628C56.9474 14.2599 57.0373 14.7544 57.1048 15.3463C57.1797 15.9307 57.2172 16.5901 57.2172 17.3243C57.2172 18.3358 57.146 19.2125 57.0036 19.9543C56.8687 20.6885 56.7002 21.2542 56.4979 21.6513C56.2956 22.0484 56.0408 22.3631 55.7336 22.5954C55.4264 22.8277 55.1417 22.9738 54.8795 23.0337ZM53.9803 21.8536C54.2351 21.8536 54.4486 21.8012 54.621 21.6963C54.8008 21.5839 54.9694 21.3741 55.1267 21.0669C55.2841 20.7597 55.4002 20.2952 55.4751 19.6733C55.5575 19.0514 55.5988 18.2684 55.5988 17.3243C55.5988 16.3728 55.5575 15.5861 55.4751 14.9642C55.4002 14.3423 55.2803 13.8852 55.1155 13.593C54.9581 13.2933 54.7933 13.091 54.621 12.9861C54.4486 12.8812 54.2351 12.8288 53.9803 12.8288C53.7256 12.8288 53.5083 12.8812 53.3285 12.9861C53.1562 13.091 52.9913 13.2933 52.834 13.593C52.6766 13.8927 52.5567 14.3535 52.4743 14.9754C52.3994 15.5898 52.3619 16.3728 52.3619 17.3243C52.3619 18.2684 52.3994 19.0514 52.4743 19.6733C52.5493 20.2952 52.6654 20.7597 52.8227 21.0669C52.9801 21.3741 53.1449 21.5839 53.3172 21.6963C53.4971 21.8012 53.7181 21.8536 53.9803 21.8536Z" stroke="white" stroke-width="3.5" mask="url(#path-1-outside-1)"/>
<path d="M59.5773 23C59.3975 23 59.3076 22.764 59.3076 22.292V7.54647C59.3076 7.07443 59.3975 6.83841 59.5773 6.83841H60.5664C60.7462 6.83841 60.8361 7.07443 60.8361 7.54647V17.1333C60.8361 17.2382 60.8548 17.2906 60.8923 17.2906C60.9073 17.2831 60.9185 17.2719 60.926 17.2569C61.1508 16.7324 61.4093 16.2005 61.7015 15.661C61.9937 15.1215 62.3309 14.5221 62.713 13.8628C63.1026 13.1959 63.3911 12.6902 63.5784 12.3455C63.8182 11.9109 64.0055 11.6936 64.1403 11.6936H65.1968C65.2717 11.6936 65.3092 11.7723 65.3092 11.9297C65.3092 12.0495 65.268 12.1844 65.1856 12.3343L62.9603 16.4365C62.9303 16.5114 62.9153 16.5713 62.9153 16.6163C62.9153 16.6388 62.9303 16.695 62.9603 16.7849L65.3654 22.3144C65.4253 22.4568 65.4553 22.5842 65.4553 22.6966C65.4553 22.8989 65.4141 23 65.3317 23H64.2078C64.0879 23 63.9418 22.7977 63.7695 22.3931L61.7352 17.5491C61.7052 17.4742 61.6753 17.4367 61.6453 17.4367C61.6228 17.4367 61.6003 17.463 61.5779 17.5154C61.5254 17.5828 61.443 17.7439 61.3306 17.9987C61.2257 18.2459 61.1283 18.4782 61.0384 18.6955L60.9035 19.0214C60.8586 19.1338 60.8361 19.2837 60.8361 19.471V22.292C60.8361 22.764 60.7462 23 60.5664 23H59.5773Z" stroke="white" stroke-width="3.5" mask="url(#path-1-outside-1)"/>
<path d="M68.2875 16.6837H71.2771C71.2921 16.6837 71.2995 16.6163 71.2995 16.4814C71.2546 15.2152 71.116 14.2898 70.8837 13.7054C70.6514 13.1135 70.2918 12.8175 69.8048 12.8175C68.8982 12.8175 68.3812 13.904 68.2538 16.0768C68.2538 16.4814 68.265 16.6837 68.2875 16.6837ZM72.5471 20.2352C72.5471 21.0669 72.326 21.7562 71.884 22.3032C71.4494 22.8502 70.8013 23.1236 69.9396 23.1236C67.7443 23.1236 66.6466 21.1943 66.6466 17.3356C66.6466 16.384 66.7103 15.5523 66.8377 14.8405C66.9726 14.1212 67.1411 13.5593 67.3434 13.1547C67.5457 12.7426 67.793 12.4129 68.0852 12.1657C68.3774 11.9109 68.6584 11.7461 68.9281 11.6712C69.2054 11.5887 69.5051 11.5475 69.8272 11.5475C71.7004 11.5475 72.637 13.3233 72.637 16.8748C72.637 17.4143 72.5246 17.684 72.2998 17.684H68.3212C68.2688 17.684 68.2426 17.7627 68.2426 17.92C68.2426 18.6618 68.2988 19.3174 68.4111 19.8868C68.5235 20.4563 68.7146 20.9283 68.9843 21.3029C69.2615 21.6701 69.6025 21.8536 70.0071 21.8536C70.2843 21.8536 70.5166 21.7899 70.7039 21.6626C70.8987 21.5277 71.041 21.3366 71.131 21.0894C71.2284 20.8421 71.2921 20.6323 71.322 20.46C71.3595 20.2802 71.3932 20.0517 71.4232 19.7744C71.4382 19.6246 71.4869 19.5497 71.5693 19.5497H72.3335C72.4759 19.5497 72.5471 19.7033 72.5471 20.0105V20.2352Z" stroke="white" stroke-width="3.5" mask="url(#path-1-outside-1)"/>
<path d="M75.0646 23C74.8773 23 74.7836 22.7602 74.7836 22.2807V12.559C74.7836 11.9821 74.8585 11.6936 75.0084 11.6936H75.3231C75.4055 11.6936 75.4692 11.7461 75.5142 11.851C75.5591 11.9559 75.6041 12.1432 75.649 12.4129L75.8513 13.9639C75.8813 14.0913 75.9075 14.155 75.93 14.155C75.96 14.155 75.9824 14.0913 75.9974 13.9639C76.1997 13.2221 76.4545 12.6452 76.7617 12.2331C77.0764 11.821 77.4023 11.6112 77.7395 11.6037H77.9193C78.0766 11.6037 78.1853 11.6449 78.2452 11.7274C78.3051 11.8098 78.3351 11.9484 78.3351 12.1432V12.9524C78.3351 13.1322 78.3201 13.2521 78.2902 13.312C78.2602 13.3645 78.2003 13.3907 78.1103 13.3907C77.8331 13.4057 77.672 13.4207 77.6271 13.4357C77.3573 13.4956 77.1176 13.7316 76.9078 14.1437C76.7055 14.5483 76.5556 15.0054 76.4582 15.5149C76.3608 16.0169 76.3121 16.5039 76.3121 16.9759V22.2807C76.3121 22.7602 76.2222 23 76.0424 23H75.0646Z" stroke="white" stroke-width="3.5" mask="url(#path-1-outside-1)"/>
<path d="M81.4034 24.5959C81.6057 24.5959 81.793 24.4236 81.9653 24.0789C82.1451 23.7343 82.235 23.3147 82.235 22.8202C82.235 22.6254 82.1601 22.2133 82.0103 21.5839L79.6501 12.3567C79.6351 12.2518 79.6276 12.1694 79.6276 12.1095C79.6276 11.8322 79.6838 11.6936 79.7962 11.6936H80.8639C81.0662 11.6936 81.1973 11.881 81.2572 12.2556L82.9543 19.943C82.9843 20.0254 83.003 20.0666 83.0105 20.0666C83.0405 20.0666 83.0555 20.0254 83.0555 19.943L84.4491 12.2893C84.5016 11.8922 84.6252 11.6936 84.82 11.6936H85.5842C85.7116 11.6936 85.7753 11.8435 85.7753 12.1432C85.7753 12.1582 85.7641 12.2443 85.7416 12.4017L83.7186 22.8427C83.5088 24.004 83.2428 24.8057 82.9206 25.2478C82.6059 25.6899 82.1863 25.9221 81.6618 25.9446H81.5157C80.9163 25.9446 80.5267 25.7948 80.3469 25.4951C80.3094 25.4276 80.2907 25.2928 80.2907 25.0905C80.2907 24.6259 80.3731 24.3936 80.5379 24.3936C80.5604 24.3936 80.6878 24.4274 80.9201 24.4948C81.1523 24.5622 81.3134 24.5959 81.4034 24.5959Z" stroke="white" stroke-width="3.5" mask="url(#path-1-outside-1)"/>
<path fill-rule="evenodd" clip-rule="evenodd" d="M12.1862 13.3795C11.4866 14.0697 10.9993 15.6236 11.0002 17.4293C11.0015 19.8752 11.8979 21.8569 13.0025 21.8556C14.1071 21.8542 15.0015 19.8704 15.0002 17.4245C14.9994 15.7509 14.5794 14.2946 13.9603 13.5422C14.0095 13.6842 14.0482 13.825 14.076 13.95C14.0121 13.7239 13.9265 13.543 13.8323 13.3996C13.6999 13.2652 13.5599 13.1618 13.4139 13.0937C13.5348 13.4023 13.4587 14.0255 13.3838 14.3855C13.4051 13.9745 13.3905 13.281 13.206 13.2661C13.2001 13.2672 13.1941 13.2674 13.1879 13.2667C13.1555 13.2716 13.1183 13.2958 13.0758 13.344C12.7682 13.6919 12.7685 14.705 12.8071 15.168C12.4684 14.335 12.6656 13.6052 12.8065 13.3445C12.5911 13.1365 12.1784 13.664 11.999 13.9538C12.0217 13.7231 12.0938 13.5325 12.1862 13.3795Z" fill="#9C0000"/>
<path fill-rule="evenodd" clip-rule="evenodd" d="M20.4854 13.4235C19.6087 14.2001 18.9985 15.9574 19.0011 18.0006C19.0046 20.7627 20.1266 23.0012 21.5072 23.0005C22.8878 22.9999 24.0041 20.7603 24.0006 17.9982C23.9982 16.112 23.4742 14.4699 22.7024 13.6184C22.7627 13.7764 22.8102 13.933 22.8444 14.0722C22.7663 13.8224 22.6622 13.6215 22.5475 13.4612C22.3802 13.3059 22.2029 13.1865 22.0181 13.1079C22.1676 13.4573 22.0726 14.1584 21.9793 14.5639C22.0059 14.0998 21.9876 13.3167 21.757 13.2998C21.7497 13.3011 21.7422 13.3013 21.7344 13.3006C21.6939 13.306 21.6475 13.3334 21.5943 13.3878C21.2098 13.7807 21.2103 14.9247 21.2585 15.4476C20.8351 14.5069 21.0816 13.6828 21.2578 13.3884C20.9885 13.1534 20.4727 13.7492 20.2485 14.0764C20.277 13.8138 20.3685 13.5971 20.4854 13.4235Z" fill="#9C0000"/>
<path fill-rule="evenodd" clip-rule="evenodd" d="M44.4837 13.4265C43.6084 14.2053 42.9986 15.9609 42.9998 18.0013C43.0013 20.7633 44.1219 23.0012 45.5026 22.9997C46.8833 22.9982 48.0013 20.7579 47.9998 17.9958C47.9987 16.1065 47.474 14.4624 46.7007 13.6126C46.762 13.7726 46.8103 13.9313 46.8449 14.0722C46.7653 13.8175 46.6586 13.6136 46.5412 13.4519C46.3756 13.2996 46.2002 13.1825 46.0175 13.1054C46.1685 13.4539 46.0733 14.1575 45.9797 14.564C46.0063 14.0999 45.9881 13.3167 45.7574 13.2998C45.7501 13.3011 45.7426 13.3014 45.7348 13.3006C45.6943 13.306 45.6479 13.3335 45.5947 13.3878C45.2102 13.7807 45.2106 14.9248 45.2589 15.4477C44.8355 14.507 45.082 13.6829 45.2581 13.3884C44.9888 13.1535 44.473 13.7492 44.2488 14.0765C44.2771 13.8153 44.3678 13.5996 44.4837 13.4265Z" fill="#9C0000"/>
<path fill-rule="evenodd" clip-rule="evenodd" d="M53.1878 13.4243C52.4868 14.2018 51.9984 15.9585 51.9997 18.0006C52.0014 20.7626 52.8983 23.0008 54.0028 22.9997C55.1074 22.9987 56.0014 20.7587 55.9997 17.9967C55.9985 16.1094 55.5794 14.4667 54.9617 13.6158C55.0102 13.7746 55.0485 13.9318 55.0759 14.0717C55.013 13.8201 54.929 13.6181 54.8364 13.4574C54.7031 13.3031 54.5618 13.1845 54.4145 13.1064C54.5346 13.4555 54.4585 14.1575 54.3838 14.5634C54.405 14.0993 54.3905 13.3161 54.2059 13.2993C54.2001 13.3006 54.1941 13.3008 54.1878 13.3C54.1554 13.3055 54.1183 13.3329 54.0757 13.3873C53.7682 13.7802 53.7685 14.9242 53.8071 15.4471C53.4684 14.5064 53.6656 13.6823 53.8065 13.3878C53.591 13.1529 53.1784 13.7487 52.999 14.0759C53.0218 13.8139 53.0947 13.5977 53.1878 13.4243Z" fill="#9C0000"/>
</svg>
